<?xml version="1.0" standalone="no"?>
<svg
  width="600"
  height="600"
  viewBox="0 0 600 600"
  xmlns="http://www.w3.org/2000/svg"
>
  <g transform="translate(300,300)">
    <path d="M128.8,-147.2C170.7,-118.4,210.9,-81.4,229.3,-32.3C247.7,16.8,244.2,77.9,217.6,127.1C190.9,176.3,141.1,213.6,90.3,219.9C39.4,226.2,-12.4,201.4,-64.7,181C-117.1,160.6,-169.8,144.6,-204.2,107.2C-238.7,69.7,-254.7,11,-246.4,-44.6C-238,-100.3,-205.1,-152.8,-160,-181C-114.8,-209.2,-57.4,-213.1,-7,-204.8C43.5,-196.5,87,-176,128.8,-147.2Z" fill="#719cf8" />
  </g>
</svg>
  