<?xml version="1.0" standalone="no"?>
<svg
  width="600"
  height="600"
  viewBox="0 0 600 600"
  xmlns="http://www.w3.org/2000/svg"
>
  <g transform="translate(300,300)">
    <path d="M118.5,-189.9C153.4,-162,181.3,-128.8,208.6,-89.3C235.8,-49.8,262.4,-4.1,257.9,38.1C253.4,80.3,217.8,119.1,180.9,150.7C144.1,182.3,106,206.8,65.6,214.7C25.2,222.6,-17.6,214,-62.9,204.9C-108.2,195.8,-156.1,186.3,-193.6,158.9C-231.1,131.5,-258.1,86.3,-264.7,38.2C-271.3,-9.8,-257.5,-60.6,-230.4,-99.1C-203.2,-137.6,-162.7,-163.9,-122.1,-189.1C-81.5,-214.4,-40.7,-238.7,0.5,-239.5C41.8,-240.4,83.6,-217.8,118.5,-189.9Z" fill="#719cf8" />
  </g>
</svg>
  