<?xml version="1.0" standalone="no"?>
<svg
  width="600"
  height="600"
  viewBox="0 0 600 600"
  xmlns="http://www.w3.org/2000/svg"
>
  <g transform="translate(300,300)">
    <path d="M100.5,-134.1C140.8,-130.5,191.4,-120.5,187.2,-95.5C183.1,-70.5,124.2,-30.6,97,-0.8C69.8,29,74.2,48.5,77.2,94.5C80.3,140.4,82,212.7,61.3,227.2C40.6,241.8,-2.5,198.6,-37.3,169.1C-72,139.6,-98.3,123.8,-129,103.4C-159.7,83,-194.7,58,-198.3,28.9C-201.9,-0.3,-174.2,-33.6,-158.3,-73.9C-142.3,-114.1,-138.2,-161.4,-113.8,-172.2C-89.4,-183.1,-44.7,-157.5,-7.3,-146.2C30.1,-134.8,60.2,-137.7,100.5,-134.1Z" fill="#719cf8" />
  </g>
</svg>
  